<svg xmlns="http://www.w3.org/2000/svg" width="400" height="300" viewBox="0 0 400 300" fill="none">
  <rect width="400" height="300" fill="#f0f7f1"/>
  <g transform="translate(160,80)">
    <path d="M40 140 C40 140 10 120 15 90 C18 70 35 65 40 75 C45 65 62 70 65 90 C70 120 40 140 40 140Z" fill="#88c48c" opacity="0.6"/>
    <path d="M40 140 C40 140 20 100 30 70 C35 55 40 60 40 70 C40 60 45 55 50 70 C60 100 40 140 40 140Z" fill="#5ba860" opacity="0.8"/>
    <rect x="38" y="130" width="4" height="30" rx="2" fill="#8e593c"/>
  </g>
  <text x="200" y="230" text-anchor="middle" font-family="Georgia, serif" font-size="14" fill="#88c48c">No Image Available</text>
</svg>
